<svg width="12" height="11" viewBox="0 0 12 11" fill="none" xmlns="http://www.w3.org/2000/svg">
<path d="M2.99984 4.83335C2.35539 4.83335 1.80539 4.60558 1.34984 4.15002C0.894282 3.69446 0.666504 3.14446 0.666504 2.50002C0.666504 1.85558 0.894282 1.30558 1.34984 0.85002C1.80539 0.394465 2.35539 0.166687 2.99984 0.166687C3.64428 0.166687 4.19428 0.394465 4.64984 0.85002C5.10539 1.30558 5.33317 1.85558 5.33317 2.50002C5.33317 3.14446 5.10539 3.69446 4.64984 4.15002C4.19428 4.60558 3.64428 4.83335 2.99984 4.83335ZM2.99984 3.50002C3.27761 3.50002 3.51373 3.4028 3.70817 3.20835C3.90261 3.01391 3.99984 2.7778 3.99984 2.50002C3.99984 2.22224 3.90261 1.98613 3.70817 1.79169C3.51373 1.59724 3.27761 1.50002 2.99984 1.50002C2.72206 1.50002 2.48595 1.59724 2.2915 1.79169C2.09706 1.98613 1.99984 2.22224 1.99984 2.50002C1.99984 2.7778 2.09706 3.01391 2.2915 3.20835C2.48595 3.4028 2.72206 3.50002 2.99984 3.50002ZM8.99984 10.8334C8.35539 10.8334 7.80539 10.6056 7.34984 10.15C6.89428 9.69446 6.6665 9.14446 6.6665 8.50002C6.6665 7.85558 6.89428 7.30558 7.34984 6.85002C7.80539 6.39446 8.35539 6.16669 8.99984 6.16669C9.64428 6.16669 10.1943 6.39446 10.6498 6.85002C11.1054 7.30558 11.3332 7.85558 11.3332 8.50002C11.3332 9.14446 11.1054 9.69446 10.6498 10.15C10.1943 10.6056 9.64428 10.8334 8.99984 10.8334ZM8.99984 9.50002C9.27761 9.50002 9.51373 9.4028 9.70817 9.20835C9.90261 9.01391 9.99984 8.7778 9.99984 8.50002C9.99984 8.22224 9.90261 7.98613 9.70817 7.79169C9.51373 7.59724 9.27761 7.50002 8.99984 7.50002C8.72206 7.50002 8.48595 7.59724 8.2915 7.79169C8.09706 7.98613 7.99984 8.22224 7.99984 8.50002C7.99984 8.7778 8.09706 9.01391 8.2915 9.20835C8.48595 9.4028 8.72206 9.50002 8.99984 9.50002ZM1.59984 10.8334L0.666504 9.90002L10.3998 0.166687L11.3332 1.10002L1.59984 10.8334Z" fill="currentColor"/>
</svg>
