<svg width="21" height="22" viewBox="0 0 21 22" fill="none" xmlns="http://www.w3.org/2000/svg">
<path fill-rule="evenodd" clip-rule="evenodd" d="M4.68605 11C4.68605 10.3363 4.79628 9.69997 4.99302 9.10314L1.5493 6.47339C0.87814 7.8361 0.5 9.3716 0.5 11C0.5 12.627 0.877674 14.1615 1.54791 15.5233L4.98977 12.8885C4.79488 12.2944 4.68605 11.6604 4.68605 11Z" fill="#FBBC05"/>
<path fill-rule="evenodd" clip-rule="evenodd" d="M10.7326 4.96209C12.1744 4.96209 13.4768 5.47299 14.5 6.30902L17.4768 3.33649C15.6628 1.75734 13.3372 0.781982 10.7326 0.781982C6.68885 0.781982 3.2135 3.09451 1.54932 6.47343L4.99304 9.10319C5.78653 6.69451 8.04839 4.96209 10.7326 4.96209Z" fill="#EB4335"/>
<path fill-rule="evenodd" clip-rule="evenodd" d="M10.7326 17.0379C8.04839 17.0379 5.78653 15.3055 4.99304 12.8969L1.54932 15.5261C3.2135 18.9055 6.68885 21.2181 10.7326 21.2181C13.2284 21.2181 15.6112 20.3319 17.3995 18.6714L14.1307 16.1443C13.2084 16.7254 12.047 17.0379 10.7326 17.0379Z" fill="#34A853"/>
<path fill-rule="evenodd" clip-rule="evenodd" d="M20.5 11C20.5 10.3962 20.407 9.74601 20.2674 9.14221H10.7325V13.0901H16.2209C15.9465 14.4361 15.1995 15.4709 14.1307 16.1444L17.3995 18.6715C19.2781 16.9279 20.5 14.3307 20.5 11Z" fill="#4285F4"/>
</svg>
