<svg width="22" height="20" viewBox="0 0 22 20" fill="none" xmlns="http://www.w3.org/2000/svg">
<path d="M11.5074 20.0001C11.5074 19.6949 11.5037 19.3896 11.5037 19.0844C11.5037 16.2898 11.5037 13.4952 11.5001 10.7005C11.5001 10.5461 11.5258 10.4946 11.6986 10.4946C14.7433 10.502 17.788 10.502 20.829 10.4946C20.9981 10.4946 21.0275 10.5461 21.0275 10.7005C21.0239 13.7268 21.0239 16.7531 21.0239 19.7794C21.0239 19.853 21.0275 19.9265 21.0275 20.0001C17.8542 20.0001 14.6808 20.0001 11.5074 20.0001Z" fill="#FBB812"/>
<path d="M0.994445 20.0001C0.990768 19.9339 0.983413 19.8677 0.983413 19.7978C0.983413 16.7715 0.983413 13.7489 0.979736 10.7226C0.979736 10.5314 1.03489 10.4946 1.21507 10.4946C4.23401 10.502 7.25295 10.4983 10.2682 10.4983C10.5035 10.4983 10.5035 10.4983 10.5035 10.741C10.5035 13.7489 10.5035 16.7568 10.5035 19.761C10.5035 19.8419 10.5109 19.9192 10.5146 20.0001C7.3412 20.0001 4.16782 20.0001 0.994445 20.0001Z" fill="#33A0DA"/>
<path d="M10.4999 4.77294C10.4999 6.28424 10.4962 7.79187 10.5036 9.30318C10.5036 9.4613 10.4705 9.5091 10.305 9.50542C7.26033 9.49807 4.21933 9.49807 1.17466 9.50542C1.01286 9.50542 0.972412 9.46497 0.972412 9.30318C0.976089 6.26953 0.976089 3.23221 0.972412 0.191212C0.972412 0.0404486 1.00551 0 1.16362 0C4.21198 0.00367715 7.26033 0.00367715 10.3124 0C10.4631 0 10.5073 0.0330943 10.5036 0.187534C10.4962 1.71723 10.4999 3.24692 10.4999 4.77294Z" fill="#EA5328"/>
<path d="M16.2656 0.00367715C17.7843 0.00367715 19.303 0.00735429 20.8216 0C20.9724 0 21.0275 0.0220629 21.0275 0.194889C21.0202 3.23221 21.0202 6.26953 21.0275 9.31053C21.0275 9.47601 20.9834 9.5091 20.8253 9.5091C17.7806 9.50542 14.7396 9.50542 11.695 9.5091C11.5479 9.5091 11.5001 9.47968 11.5001 9.32157C11.5037 6.27689 11.5037 3.23221 11.5001 0.187534C11.5001 0.0330943 11.5442 0 11.6913 0C13.2136 0.00735429 14.7396 0.00367715 16.2656 0.00367715Z" fill="#7EBA2A"/>
</svg>
