<svg width="21" height="18" viewBox="0 0 21 18" fill="none" xmlns="http://www.w3.org/2000/svg">
<path d="M7.29677 13.9219C6.49816 14.8073 5.60841 15.2457 4.6275 15.237C3.6466 15.2283 2.79157 14.9462 2.0624 14.3906C1.33323 13.8351 0.838441 13.0929 0.578024 12.1641C0.317608 11.2352 0.499899 10.2674 1.1249 9.26042L2.79157 6.57812C2.4617 6.2309 2.20563 5.84036 2.02334 5.40651C1.84105 4.97266 1.7499 4.50382 1.7499 4C1.7499 2.95833 2.11448 2.07292 2.84365 1.34375C3.57282 0.614583 4.45823 0.25 5.4999 0.25C6.54157 0.25 7.42698 0.614583 8.15615 1.34375C8.88532 2.07292 9.2499 2.95833 9.2499 4C9.2499 5.04167 8.88532 5.92708 8.15615 6.65625C7.42698 7.38542 6.54157 7.75 5.4999 7.75C5.31466 7.75 5.1295 7.73264 4.94443 7.69792C4.75919 7.66319 4.57108 7.61979 4.38011 7.56771L2.71344 10.25C2.38358 10.7708 2.29243 11.27 2.44 11.7474C2.58757 12.2248 2.85233 12.6111 3.23427 12.9062C3.61622 13.2014 4.05459 13.349 4.54938 13.349C5.04417 13.349 5.4999 13.1233 5.91657 12.6719L13.703 4.07812C14.5016 3.19271 15.3871 2.75 16.3593 2.75C17.3315 2.75 18.1822 3.02778 18.9114 3.58333C19.6405 4.13889 20.1397 4.88108 20.4088 5.8099C20.6779 6.73872 20.4999 7.71528 19.8749 8.73958L18.2082 11.4219C18.5381 11.7691 18.7942 12.1596 18.9765 12.5935C19.1588 13.0273 19.2499 13.4962 19.2499 14C19.2499 15.0417 18.8853 15.9271 18.1561 16.6562C17.427 17.3854 16.5416 17.75 15.4999 17.75C14.4582 17.75 13.5728 17.3854 12.8436 16.6562C12.1145 15.9271 11.7499 15.0417 11.7499 14C11.7499 12.9583 12.1145 12.0729 12.8436 11.3438C13.5728 10.6146 14.4582 10.25 15.4999 10.25C15.6923 10.25 15.8792 10.2674 16.0608 10.3021C16.2424 10.3368 16.4287 10.3802 16.6197 10.4323L18.2864 7.75C18.6162 7.22917 18.7074 6.72569 18.5598 6.23958C18.4122 5.75347 18.1475 5.36285 17.7655 5.06771C17.3836 4.77257 16.9409 4.62934 16.4374 4.63802C15.9339 4.6467 15.4825 4.87674 15.0832 5.32812L7.29677 13.9219ZM5.50537 5.875C6.02256 5.875 6.46344 5.69088 6.82802 5.32266C7.19261 4.95443 7.3749 4.51172 7.3749 3.99453C7.3749 3.47734 7.19078 3.03646 6.82256 2.67188C6.45433 2.30729 6.01162 2.125 5.49443 2.125C4.97724 2.125 4.53636 2.30912 4.17177 2.67734C3.80719 3.04557 3.6249 3.48828 3.6249 4.00547C3.6249 4.52266 3.80901 4.96354 4.17724 5.32812C4.54547 5.69271 4.98818 5.875 5.50537 5.875ZM15.5054 15.875C16.0226 15.875 16.4634 15.6909 16.828 15.3227C17.1926 14.9544 17.3749 14.5117 17.3749 13.9945C17.3749 13.4773 17.1908 13.0365 16.8226 12.6719C16.4543 12.3073 16.0116 12.125 15.4944 12.125C14.9772 12.125 14.5364 12.3091 14.1718 12.6773C13.8072 13.0456 13.6249 13.4883 13.6249 14.0055C13.6249 14.5227 13.809 14.9635 14.1772 15.3281C14.5455 15.6927 14.9882 15.875 15.5054 15.875Z" fill="currentColor"/>
</svg>
