<svg width="71" height="70" viewBox="0 0 71 70" fill="none" xmlns="http://www.w3.org/2000/svg">
<path d="M35.5 0C16.1653 0 0.5 15.6653 0.5 35C0.5 54.3347 16.1653 70 35.5 70C54.8347 70 70.5 54.3347 70.5 35C70.5 15.6653 54.8347 0 35.5 0ZM35.5 13.5484C42.3589 13.5484 47.9194 19.1089 47.9194 25.9677C47.9194 32.8266 42.3589 38.3871 35.5 38.3871C28.6411 38.3871 23.0806 32.8266 23.0806 25.9677C23.0806 19.1089 28.6411 13.5484 35.5 13.5484ZM35.5 62.0968C27.2157 62.0968 19.7923 58.3427 14.8246 52.4718C17.4778 47.4758 22.6714 44.0323 28.7258 44.0323C29.0645 44.0323 29.4032 44.0887 29.7278 44.1875C31.5625 44.7802 33.4819 45.1613 35.5 45.1613C37.5181 45.1613 39.4516 44.7802 41.2722 44.1875C41.5968 44.0887 41.9355 44.0323 42.2742 44.0323C48.3286 44.0323 53.5222 47.4758 56.1754 52.4718C51.2077 58.3427 43.7843 62.0968 35.5 62.0968Z" fill="CurrentColor"/>
</svg>
