<svg viewBox="0 0 17 35" fill="none" xmlns="http://www.w3.org/2000/svg">
<path d="M5.40618 27.0071C4.05771 27.0071 2.94276 27.3436 2.05634 28.0165C1.16991 28.6895 0.552172 29.6864 0.198104 31.0023C-0.140898 32.2704 -0.0454664 33.2547 0.489402 33.9528C1.02427 34.6509 1.94836 35 3.26419 35C4.58001 35 5.64724 34.6434 6.55878 33.9302C7.47031 33.2171 8.09307 32.2428 8.42454 31.0048C8.76856 29.7191 8.67566 28.7322 8.14832 28.0442C7.62098 27.3536 6.70694 27.0096 5.40618 27.0096V27.0071Z" fill="currentColor"/>
<path d="M8.59775 0L3.64331 22.9642H9.3787L16.7313 0H8.59775Z" fill="currentColor"/>
<path d="M2.12434 2.72452V3.62099H1.62964V1.28564H2.31016C2.62656 1.28564 2.8626 1.3434 3.01578 1.45891C3.16896 1.57442 3.24429 1.7502 3.24429 1.98625C3.24429 2.12436 3.20663 2.24489 3.1313 2.35287C3.05597 2.46085 2.94798 2.54372 2.80987 2.60398C3.16143 3.12881 3.38993 3.46781 3.49791 3.62099H2.94798L2.39052 2.72452H2.12685H2.12434ZM2.12434 2.32274H2.28505C2.44074 2.32274 2.55624 2.29763 2.63157 2.24489C2.70691 2.19216 2.74458 2.1118 2.74458 1.9988C2.74458 1.8858 2.70691 1.81047 2.63157 1.76276C2.55624 1.71505 2.43822 1.69245 2.27751 1.69245H2.12685V2.32274H2.12434Z" fill="currentColor"/>
<path d="M2.45337 4.90673C1.09988 4.90673 0 3.80686 0 2.45336C0 1.09987 1.09988 0 2.45337 0C3.80686 0 4.90674 1.09987 4.90674 2.45336C4.90674 3.80686 3.80686 4.90673 2.45337 4.90673ZM2.45337 0.364114C1.30077 0.364114 0.364116 1.30076 0.364116 2.45336C0.364116 3.60597 1.30077 4.54262 2.45337 4.54262C3.60597 4.54262 4.54262 3.60597 4.54262 2.45336C4.54262 1.30076 3.60597 0.364114 2.45337 0.364114Z" fill="currentColor"/>
</svg>
