<svg width="25" height="18" viewBox="0 0 25 18" fill="currentColor" xmlns="http://www.w3.org/2000/svg">
<path d="M7.06614 18C6.12399 18 5.32316 17.6719 4.66365 17.0156C4.00415 16.3594 3.67439 15.5625 3.67439 14.625H2.2329C1.91257 14.625 1.64406 14.5172 1.42736 14.3016C1.21067 14.0859 1.10232 13.8187 1.10232 13.5C1.10232 13.1812 1.21067 12.9141 1.42736 12.6984C1.64406 12.4828 1.91257 12.375 2.2329 12.375H4.55059C4.87092 12.0187 5.24779 11.7422 5.68118 11.5453C6.11457 11.3484 6.57622 11.25 7.06614 11.25C7.55606 11.25 8.01771 11.3484 8.4511 11.5453C8.88449 11.7422 9.26135 12.0187 9.58168 12.375H14.3019L16.6761 2.25H5.65291C5.33258 2.25 5.06407 2.14219 4.84737 1.92656C4.63068 1.71094 4.52233 1.44375 4.52233 1.125C4.52233 0.80625 4.63068 0.539062 4.84737 0.323437C5.06407 0.107813 5.33258 0 5.65291 0H18.0893C18.4662 0 18.7677 0.140625 18.9938 0.421875C19.2199 0.703125 19.2858 1.02187 19.1916 1.37812L18.4568 4.5H20.6331C20.9911 4.5 21.3303 4.57969 21.6507 4.73906C21.971 4.89844 22.2348 5.11875 22.4421 5.4L24.5619 8.18437C24.7692 8.44687 24.9011 8.73281 24.9576 9.04219C25.0141 9.35156 25.0141 9.66562 24.9576 9.98438L24.1945 13.725C24.1379 13.9875 24.006 14.2031 23.7988 14.3719C23.5915 14.5406 23.3559 14.625 23.0921 14.625H21.7637C21.7637 15.5625 21.434 16.3594 20.7744 17.0156C20.1149 17.6719 19.3141 18 18.372 18C17.4298 18 16.629 17.6719 15.9695 17.0156C15.31 16.3594 14.9802 15.5625 14.9802 14.625H10.4579C10.4579 15.5625 10.1281 16.3594 9.46863 17.0156C8.80912 17.6719 8.00829 18 7.06614 18ZM17.1566 10.125H22.6116L22.7247 9.53438L20.6331 6.75H17.948L17.1566 10.125ZM14.3584 12.1781L14.5421 11.3625C14.6646 10.8187 14.82 10.1531 15.0085 9.36562C15.065 9.12187 15.1215 8.89687 15.1781 8.69063C15.2346 8.48438 15.2817 8.27812 15.3194 8.07187L15.5031 7.25625C15.6256 6.7125 15.781 6.04688 15.9695 5.25938C16.1579 4.47187 16.3134 3.80625 16.4358 3.2625L16.6196 2.44687L16.6761 2.25L14.3019 12.375L14.3584 12.1781ZM1.13058 10.4906C0.810251 10.4906 0.541737 10.3828 0.325042 10.1672C0.108347 9.95156 0 9.68437 0 9.36562C0 9.04688 0.108347 8.77969 0.325042 8.56406C0.541737 8.34844 0.810251 8.24062 1.13058 8.24062H5.08762C5.40795 8.24062 5.67647 8.34844 5.89316 8.56406C6.10985 8.77969 6.2182 9.04688 6.2182 9.36562C6.2182 9.68437 6.10985 9.95156 5.89316 10.1672C5.67647 10.3828 5.40795 10.4906 5.08762 10.4906H1.13058ZM3.39175 6.38437C3.07142 6.38437 2.8029 6.27656 2.58621 6.06094C2.36951 5.84531 2.26116 5.57812 2.26116 5.25938C2.26116 4.94062 2.36951 4.67344 2.58621 4.45781C2.8029 4.24219 3.07142 4.13438 3.39175 4.13438H8.47937C8.7997 4.13438 9.06821 4.24219 9.28491 4.45781C9.5016 4.67344 9.60995 4.94062 9.60995 5.25938C9.60995 5.57812 9.5016 5.84531 9.28491 6.06094C9.06821 6.27656 8.7997 6.38437 8.47937 6.38437H3.39175ZM7.06614 15.75C7.38647 15.75 7.65498 15.6422 7.87168 15.4266C8.08837 15.2109 8.19672 14.9437 8.19672 14.625C8.19672 14.3062 8.08837 14.0391 7.87168 13.8234C7.65498 13.6078 7.38647 13.5 7.06614 13.5C6.74581 13.5 6.47729 13.6078 6.2606 13.8234C6.0439 14.0391 5.93556 14.3062 5.93556 14.625C5.93556 14.9437 6.0439 15.2109 6.2606 15.4266C6.47729 15.6422 6.74581 15.75 7.06614 15.75ZM18.372 15.75C18.6923 15.75 18.9608 15.6422 19.1775 15.4266C19.3942 15.2109 19.5025 14.9437 19.5025 14.625C19.5025 14.3062 19.3942 14.0391 19.1775 13.8234C18.9608 13.6078 18.6923 13.5 18.372 13.5C18.0516 13.5 17.7831 13.6078 17.5664 13.8234C17.3497 14.0391 17.2414 14.3062 17.2414 14.625C17.2414 14.9437 17.3497 15.2109 17.5664 15.4266C17.7831 15.6422 18.0516 15.75 18.372 15.75Z" fill="currentColor"/>
</svg>
