<svg width="36" height="30" viewBox="0 0 36 30" fill="none" xmlns="http://www.w3.org/2000/svg">
<path d="M2.54172 30C2.23617 30 1.95839 29.9236 1.70839 29.7708C1.45839 29.6181 1.26395 29.4167 1.12506 29.1667C0.986167 28.9167 0.909779 28.6458 0.89589 28.3542C0.882001 28.0625 0.95839 27.7778 1.12506 27.5L16.5417 0.833333C16.7084 0.555556 16.9237 0.347222 17.1876 0.208333C17.4514 0.0694444 17.7223 0 18.0001 0C18.2778 0 18.5487 0.0694444 18.8126 0.208333C19.0764 0.347222 19.2917 0.555556 19.4584 0.833333L34.8751 27.5C35.0417 27.7778 35.1181 28.0625 35.1042 28.3542C35.0903 28.6458 35.0139 28.9167 34.8751 29.1667C34.7362 29.4167 34.5417 29.6181 34.2917 29.7708C34.0417 29.9236 33.7639 30 33.4584 30H2.54172ZM5.41672 26.6667H30.5834L18.0001 5L5.41672 26.6667ZM18.0001 25C18.4723 25 18.8681 24.8403 19.1876 24.5208C19.507 24.2014 19.6667 23.8056 19.6667 23.3333C19.6667 22.8611 19.507 22.4653 19.1876 22.1458C18.8681 21.8264 18.4723 21.6667 18.0001 21.6667C17.5278 21.6667 17.132 21.8264 16.8126 22.1458C16.4931 22.4653 16.3334 22.8611 16.3334 23.3333C16.3334 23.8056 16.4931 24.2014 16.8126 24.5208C17.132 24.8403 17.5278 25 18.0001 25ZM18.0001 20C18.4723 20 18.8681 19.8403 19.1876 19.5208C19.507 19.2014 19.6667 18.8056 19.6667 18.3333V13.3333C19.6667 12.8611 19.507 12.4653 19.1876 12.1458C18.8681 11.8264 18.4723 11.6667 18.0001 11.6667C17.5278 11.6667 17.132 11.8264 16.8126 12.1458C16.4931 12.4653 16.3334 12.8611 16.3334 13.3333V18.3333C16.3334 18.8056 16.4931 19.2014 16.8126 19.5208C17.132 19.8403 17.5278 20 18.0001 20Z" fill="currentColor"/>
</svg>
